<svg width="296" height="22" viewBox="0 0 296 22" fill="none" xmlns="http://www.w3.org/2000/svg">
<path d="M1.7663 6.29156L1.82067 8.68406C2.36442 7.79594 3.04411 7.12984 3.85974 6.68578C4.67536 6.24172 5.58161 6.01969 6.57849 6.01969C8.89849 6.01969 10.3711 6.97125 10.9965 8.87437C11.5221 7.95906 12.2244 7.25672 13.1035 6.76734C13.9825 6.26891 14.9522 6.01969 16.0125 6.01969C19.1663 6.01969 20.7749 7.74156 20.8383 11.1853V21H19.2071V11.3077C19.198 9.99359 18.9125 9.01937 18.3507 8.385C17.7979 7.75062 16.8916 7.43344 15.6319 7.43344C14.4629 7.45156 13.475 7.83219 12.6685 8.57531C11.8619 9.30937 11.4133 10.2066 11.3227 11.2669V21H9.69146V11.1853C9.68239 9.92562 9.38333 8.98766 8.79427 8.37141C8.21427 7.74609 7.31708 7.43344 6.10271 7.43344C5.07864 7.43344 4.19958 7.72797 3.46552 8.31703C2.73146 8.89703 2.18771 9.7625 1.83427 10.9134V21H0.203018V6.29156H1.7663Z" fill="#4285F4"/>
<path d="M106.693 21H105.062V6.29156H106.693V21ZM104.776 2.03672C104.776 1.72859 104.876 1.47031 105.076 1.26187C105.275 1.04437 105.547 0.935625 105.891 0.935625C106.236 0.935625 106.507 1.04437 106.707 1.26187C106.915 1.47031 107.019 1.72859 107.019 2.03672C107.019 2.34484 106.915 2.60312 106.707 2.81156C106.507 3.02 106.236 3.12422 105.891 3.12422C105.547 3.12422 105.275 3.02 105.076 2.81156C104.876 2.60312 104.776 2.34484 104.776 2.03672Z" fill="#EA4335"/>
<path d="M194.519 13.5914L192.657 15.3858V21H191.026V0.12H192.657V13.4827L194.193 11.8242L199.821 6.29156H201.873L195.634 12.4903L202.417 21H200.473L194.519 13.5914Z" fill="#34A853"/>
<path d="M290.27 21.2719C289.02 21.2719 287.887 20.9637 286.872 20.3475C285.866 19.7312 285.082 18.8748 284.52 17.7783C283.958 16.6727 283.677 15.4356 283.677 14.0672V13.4827C283.677 12.0689 283.949 10.7956 284.493 9.66281C285.046 8.53 285.812 7.64187 286.79 6.99844C287.769 6.34594 288.829 6.01969 289.971 6.01969C291.757 6.01969 293.17 6.63141 294.212 7.85484C295.264 9.06922 295.789 10.7322 295.789 12.8437V13.7545H285.295V14.0672C285.295 15.7347 285.771 17.1258 286.722 18.2405C287.683 19.3461 288.888 19.8989 290.338 19.8989C291.208 19.8989 291.974 19.7403 292.636 19.4231C293.306 19.1059 293.913 18.5984 294.457 17.9006L295.477 18.6755C294.28 20.4064 292.545 21.2719 290.27 21.2719ZM289.971 7.40625C288.748 7.40625 287.715 7.85484 286.872 8.75203C286.038 9.64922 285.531 10.8545 285.349 12.368H294.172V12.1912C294.126 10.7775 293.723 9.62656 292.962 8.73844C292.201 7.85031 291.204 7.40625 289.971 7.40625Z" fill="#F9AB00"/>
</svg>
