<svg width="300" height="57" viewBox="0 0 300 57" fill="none" xmlns="http://www.w3.org/2000/svg">
<path d="M33.5709 0.399996V7.84H9.97086V24.24H28.3709V31.68H9.97086V56H0.850861V0.399996H33.5709ZM130.881 38.66C130.881 39.9 130.801 41.02 130.641 42.02H105.381C105.581 44.66 106.561 46.78 108.321 48.38C110.081 49.98 112.241 50.78 114.801 50.78C118.481 50.78 121.081 49.24 122.601 46.16H129.981C128.981 49.2 127.161 51.7 124.521 53.66C121.921 55.58 118.681 56.54 114.801 56.54C111.641 56.54 108.801 55.84 106.281 54.44C103.801 53 101.841 51 100.401 48.44C99.0013 45.84 98.3013 42.84 98.3013 39.44C98.3013 36.04 98.9813 33.06 100.341 30.5C101.741 27.9 103.681 25.9 106.161 24.5C108.681 23.1 111.561 22.4 114.801 22.4C117.921 22.4 120.701 23.08 123.141 24.44C125.581 25.8 127.481 27.72 128.841 30.2C130.201 32.64 130.881 35.46 130.881 38.66ZM123.741 36.5C123.701 33.98 122.801 31.96 121.041 30.44C119.281 28.92 117.101 28.16 114.501 28.16C112.141 28.16 110.121 28.92 108.441 30.44C106.761 31.92 105.761 33.94 105.441 36.5H123.741ZM206.328 56.54C203.208 56.54 200.388 55.84 197.868 54.44C195.348 53 193.368 51 191.928 48.44C190.488 45.84 189.768 42.84 189.768 39.44C189.768 36.08 190.508 33.1 191.988 30.5C193.468 27.9 195.488 25.9 198.048 24.5C200.608 23.1 203.468 22.4 206.628 22.4C209.788 22.4 212.648 23.1 215.208 24.5C217.768 25.9 219.788 27.9 221.268 30.5C222.748 33.1 223.488 36.08 223.488 39.44C223.488 42.8 222.728 45.78 221.208 48.38C219.688 50.98 217.608 53 214.968 54.44C212.368 55.84 209.488 56.54 206.328 56.54ZM206.328 50.6C208.088 50.6 209.728 50.18 211.248 49.34C212.808 48.5 214.068 47.24 215.028 45.56C215.988 43.88 216.468 41.84 216.468 39.44C216.468 37.04 216.008 35.02 215.088 33.38C214.168 31.7 212.948 30.44 211.428 29.6C209.908 28.76 208.268 28.34 206.508 28.34C204.748 28.34 203.108 28.76 201.588 29.6C200.108 30.44 198.928 31.7 198.048 33.38C197.168 35.02 196.728 37.04 196.728 39.44C196.728 43 197.628 45.76 199.428 47.72C201.268 49.64 203.568 50.6 206.328 50.6Z" fill="#4285F4"/>
<path d="M47.3627 27.74C48.3627 26.06 49.6827 24.76 51.3227 23.84C53.0027 22.88 54.9827 22.4 57.2627 22.4V29.48H55.5227C52.8427 29.48 50.8027 30.16 49.4027 31.52C48.0427 32.88 47.3627 35.24 47.3627 38.6V56H40.5227V22.94H47.3627V27.74ZM177.643 28.52V46.82C177.643 48.06 177.923 48.96 178.483 49.52C179.083 50.04 180.083 50.3 181.483 50.3H185.683V56H180.283C177.203 56 174.843 55.28 173.203 53.84C171.563 52.4 170.743 50.06 170.743 46.82V28.52H166.843V22.94H170.743V14.72H177.643V22.94H185.683V28.52H177.643Z" fill="#EA4335"/>
<path d="M93.8501 38.66C93.8501 39.9 93.7701 41.02 93.6101 42.02H68.3501C68.5501 44.66 69.5301 46.78 71.2901 48.38C73.0501 49.98 75.2101 50.78 77.7701 50.78C81.4501 50.78 84.0501 49.24 85.5701 46.16H92.9501C91.9501 49.2 90.1301 51.7 87.4901 53.66C84.8901 55.58 81.6501 56.54 77.7701 56.54C74.6101 56.54 71.7701 55.84 69.2501 54.44C66.7701 53 64.8101 51 63.3701 48.44C61.9701 45.84 61.2701 42.84 61.2701 39.44C61.2701 36.04 61.9501 33.06 63.3101 30.5C64.7101 27.9 66.6501 25.9 69.1301 24.5C71.6501 23.1 74.5301 22.4 77.7701 22.4C80.8901 22.4 83.6701 23.08 86.1101 24.44C88.5501 25.8 90.4501 27.72 91.8101 30.2C93.1701 32.64 93.8501 35.46 93.8501 38.66ZM86.7101 36.5C86.6701 33.98 85.7701 31.96 84.0101 30.44C82.2501 28.92 80.0701 28.16 77.4701 28.16C75.1101 28.16 73.0901 28.92 71.4101 30.44C69.7301 31.92 68.7301 33.94 68.4101 36.5H86.7101ZM246.929 22.4C249.529 22.4 251.849 22.94 253.889 24.02C255.969 25.1 257.589 26.7 258.749 28.82C259.909 30.94 260.489 33.5 260.489 36.5V56H253.709V37.52C253.709 34.56 252.969 32.3 251.489 30.74C250.009 29.14 247.989 28.34 245.429 28.34C242.869 28.34 240.829 29.14 239.309 30.74C237.829 32.3 237.089 34.56 237.089 37.52V56H230.249V22.94H237.089V26.72C238.209 25.36 239.629 24.3 241.349 23.54C243.109 22.78 244.969 22.4 246.929 22.4Z" fill="#F9AB00"/>
<path d="M149.613 56.54C147.013 56.54 144.673 56.08 142.593 55.16C140.553 54.2 138.933 52.92 137.733 51.32C136.533 49.68 135.893 47.86 135.813 45.86H142.893C143.013 47.26 143.673 48.44 144.873 49.4C146.113 50.32 147.653 50.78 149.493 50.78C151.413 50.78 152.893 50.42 153.933 49.7C155.013 48.94 155.553 47.98 155.553 46.82C155.553 45.58 154.953 44.66 153.753 44.06C152.593 43.46 150.733 42.8 148.173 42.08C145.693 41.4 143.673 40.74 142.113 40.1C140.553 39.46 139.193 38.48 138.033 37.16C136.913 35.84 136.353 34.1 136.353 31.94C136.353 30.18 136.873 28.58 137.913 27.14C138.953 25.66 140.433 24.5 142.353 23.66C144.313 22.82 146.553 22.4 149.073 22.4C152.833 22.4 155.853 23.36 158.133 25.28C160.453 27.16 161.693 29.74 161.853 33.02H155.013C154.893 31.54 154.293 30.36 153.213 29.48C152.133 28.6 150.673 28.16 148.833 28.16C147.033 28.16 145.653 28.5 144.693 29.18C143.733 29.86 143.253 30.76 143.253 31.88C143.253 32.76 143.573 33.5 144.213 34.1C144.853 34.7 145.633 35.18 146.553 35.54C147.473 35.86 148.833 36.28 150.633 36.8C153.033 37.44 154.993 38.1 156.513 38.78C158.073 39.42 159.413 40.38 160.533 41.66C161.653 42.94 162.233 44.64 162.273 46.76C162.273 48.64 161.753 50.32 160.713 51.8C159.673 53.28 158.193 54.44 156.273 55.28C154.393 56.12 152.173 56.54 149.613 56.54ZM299.514 38.66C299.514 39.9 299.434 41.02 299.274 42.02H274.014C274.214 44.66 275.194 46.78 276.954 48.38C278.714 49.98 280.874 50.78 283.434 50.78C287.114 50.78 289.714 49.24 291.234 46.16H298.614C297.614 49.2 295.794 51.7 293.154 53.66C290.554 55.58 287.314 56.54 283.434 56.54C280.274 56.54 277.434 55.84 274.914 54.44C272.434 53 270.474 51 269.034 48.44C267.634 45.84 266.934 42.84 266.934 39.44C266.934 36.04 267.614 33.06 268.974 30.5C270.374 27.9 272.314 25.9 274.794 24.5C277.314 23.1 280.194 22.4 283.434 22.4C286.554 22.4 289.334 23.08 291.774 24.44C294.214 25.8 296.114 27.72 297.474 30.2C298.834 32.64 299.514 35.46 299.514 38.66ZM292.374 36.5C292.334 33.98 291.434 31.96 289.674 30.44C287.914 28.92 285.734 28.16 283.134 28.16C280.774 28.16 278.754 28.92 277.074 30.44C275.394 31.92 274.394 33.94 274.074 36.5H292.374Z" fill="#34A853"/>
</svg>
