<svg width="140" height="22" viewBox="0 0 140 22" fill="none" xmlns="http://www.w3.org/2000/svg">
<path d="M2.0663 6.29156L2.12068 8.68406C2.66443 7.79594 3.34412 7.12984 4.15974 6.68578C4.97537 6.24172 5.88162 6.01969 6.87849 6.01969C9.19849 6.01969 10.6711 6.97125 11.2965 8.87437C11.8221 7.95906 12.5244 7.25672 13.4035 6.76734C14.2826 6.26891 15.2522 6.01969 16.3126 6.01969C19.4663 6.01969 21.0749 7.74156 21.1383 11.1853V21H19.5071V11.3077C19.498 9.99359 19.2126 9.01937 18.6507 8.385C18.0979 7.75062 17.1916 7.43344 15.9319 7.43344C14.7629 7.45156 13.7751 7.83219 12.9685 8.57531C12.1619 9.30937 11.7133 10.2066 11.6227 11.2669V21H9.99146V11.1853C9.9824 9.92562 9.68333 8.98766 9.09427 8.37141C8.51427 7.74609 7.61708 7.43344 6.40271 7.43344C5.37865 7.43344 4.49958 7.72797 3.76552 8.31703C3.03146 8.89703 2.48771 9.7625 2.13427 10.9134V21H0.503021V6.29156H2.0663Z" fill="#4285F4"/>
<path d="M54.7932 21H53.162V6.29156H54.7932V21ZM52.8765 2.03672C52.8765 1.72859 52.9762 1.47031 53.1755 1.26187C53.3749 1.04437 53.6468 0.935625 53.9912 0.935625C54.3355 0.935625 54.6074 1.04437 54.8068 1.26187C55.0152 1.47031 55.1195 1.72859 55.1195 2.03672C55.1195 2.34484 55.0152 2.60312 54.8068 2.81156C54.6074 3.02 54.3355 3.12422 53.9912 3.12422C53.6468 3.12422 53.3749 3.02 53.1755 2.81156C52.9762 2.60312 52.8765 2.34484 52.8765 2.03672Z" fill="#EA4335"/>
<path d="M90.4192 13.5914L88.5568 15.3858V21H86.9256V0.12H88.5568V13.4827L90.0929 11.8242L95.7207 6.29156H97.7734L91.5338 12.4903L98.3171 21H96.3732L90.4192 13.5914Z" fill="#34A853"/>
<path d="M133.97 21.2719C132.72 21.2719 131.587 20.9637 130.572 20.3475C129.566 19.7312 128.782 18.8748 128.22 17.7783C127.658 16.6727 127.377 15.4356 127.377 14.0672V13.4827C127.377 12.0689 127.649 10.7956 128.193 9.66281C128.746 8.53 129.512 7.64187 130.49 6.99844C131.469 6.34594 132.529 6.01969 133.671 6.01969C135.457 6.01969 136.87 6.63141 137.912 7.85484C138.964 9.06922 139.489 10.7322 139.489 12.8437V13.7545H128.995V14.0672C128.995 15.7347 129.471 17.1258 130.422 18.2405C131.383 19.3461 132.588 19.8989 134.038 19.8989C134.908 19.8989 135.674 19.7403 136.336 19.4231C137.006 19.1059 137.613 18.5984 138.157 17.9006L139.177 18.6755C137.98 20.4064 136.245 21.2719 133.97 21.2719ZM133.671 7.40625C132.448 7.40625 131.415 7.85484 130.572 8.75203C129.738 9.64922 129.231 10.8545 129.049 12.368H137.872V12.1912C137.826 10.7775 137.423 9.62656 136.662 8.73844C135.901 7.85031 134.904 7.40625 133.671 7.40625Z" fill="#F9AB00"/>
</svg>
